<mxfile host="app.diagrams.net" modified="2021-12-05T23:57:00.032Z" agent="5.0 (Windows NT 6.1; Win64; x64) AppleWebKit/537.36 (KHTML, like Gecko) Chrome/93.0.4577.63 Safari/537.36" etag="gQALsJJsN04nl8icNlQS" version="15.9.1" type="github" pages="2">
  <diagram id="ixh8HMe_UMt84jLvKzkJ" name="Page-1">
    <mxGraphModel dx="1422" dy="794" grid="1" gridSize="10" guides="1" tooltips="1" connect="1" arrows="1" fold="1" page="1" pageScale="1" pageWidth="827" pageHeight="1169" math="0" shadow="0">
      <root>
        <mxCell id="0" />
        <mxCell id="1" parent="0" />
        <mxCell id="MCnS7lnLN-izPTcOaK5t-1" value="" style="rounded=1;whiteSpace=wrap;html=1;" vertex="1" parent="1">
          <mxGeometry x="130" y="110" width="80" height="40" as="geometry" />
        </mxCell>
        <mxCell id="MCnS7lnLN-izPTcOaK5t-2" value="" style="ellipse;whiteSpace=wrap;html=1;fillColor=#fff2cc;strokeColor=#d6b656;" vertex="1" parent="1">
          <mxGeometry x="340" y="90" width="120" height="80" as="geometry" />
        </mxCell>
        <mxCell id="MCnS7lnLN-izPTcOaK5t-3" value="" style="html=1;shadow=0;dashed=0;align=center;verticalAlign=middle;shape=mxgraph.arrows2.arrow;dy=0.6;dx=40;notch=20;fillColor=#f8cecc;strokeColor=#b85450;" vertex="1" parent="1">
          <mxGeometry x="240" y="115" width="60" height="30" as="geometry" />
        </mxCell>
      </root>
    </mxGraphModel>
  </diagram>
  <diagram id="1Bu2xPhgDZuiA6Qv64bu" name="Page-2">
    <mxGraphModel dx="1422" dy="794" grid="1" gridSize="10" guides="1" tooltips="1" connect="1" arrows="1" fold="1" page="1" pageScale="1" pageWidth="827" pageHeight="1169" math="0" shadow="0">
      <root>
        <mxCell id="95quA1OlGtOTQpcceFTQ-0" />
        <mxCell id="95quA1OlGtOTQpcceFTQ-1" parent="95quA1OlGtOTQpcceFTQ-0" />
      </root>
    </mxGraphModel>
  </diagram>
</mxfile>
